<svg id="レイヤー_1" data-name="レイヤー 1" xmlns="http://www.w3.org/2000/svg" viewBox="0 0 109.53 60.22"><defs><style>.cls-1{isolation:isolate;}.cls-2{fill:#494949;}</style></defs><g class="cls-1"><path d="M16.63,9.91V40H13.47V9.91H1V8H29.09V9.91Z" transform="translate(-1.01 -7.99)"/></g><g class="cls-1"><g class="cls-1"><path d="M62.31,33.07A16.35,16.35,0,0,1,45.7,49.54a16.49,16.49,0,1,1,0-33A16.39,16.39,0,0,1,62.31,33.07Zm-2.21,0a14.4,14.4,0,1,0-28.8,0,14.4,14.4,0,1,0,28.8,0Z" transform="translate(-1.01 -7.99)"/></g><g class="cls-1"><path d="M79.06,49,68.69,33.89h-1V49H65.62V17h4.61c2.45,0,4.65.19,6.77,1.63a8,8,0,0,1,3.31,6.87,7.68,7.68,0,0,1-5.38,7.77,12.15,12.15,0,0,1-3.93.63L81.46,49ZM67.73,32H70.8c4.57,0,7.3-2.4,7.3-6.53,0-3.22-1.58-4.9-2.83-5.57a11.41,11.41,0,0,0-4.9-1H67.73Z" transform="translate(-1.01 -7.99)"/><path d="M95,17V49H92.88V17Z" transform="translate(-1.01 -7.99)"/></g><g class="cls-1"><path d="M110.54,17V49h-2.11V17Z" transform="translate(-1.01 -7.99)"/></g></g><g class="cls-1"><g class="cls-1"><path class="cls-2" d="M18.14,62.3V68h-.79V56h2.32c2,0,3.51,1.08,3.51,3.13s-1.42,3.17-3.49,3.17Zm0-.72h1.59a2.38,2.38,0,0,0,2.63-2.43c0-1.49-1-2.43-2.76-2.43H18.14Z" transform="translate(-1.01 -7.99)"/><path class="cls-2" d="M37.19,62A6.23,6.23,0,1,1,31,55.84,6.13,6.13,0,0,1,37.19,62Zm-.83,0A5.4,5.4,0,1,0,31,67.49,5.33,5.33,0,0,0,36.36,62Z" transform="translate(-1.01 -7.99)"/></g><g class="cls-1"><path class="cls-2" d="M44.82,68l-3.89-5.67h-.36V68h-.79V56h1.73a4.2,4.2,0,0,1,2.54.61,3,3,0,0,1,1.24,2.58,2.87,2.87,0,0,1-2,2.91,4.5,4.5,0,0,1-1.47.24L45.72,68Zm-4.25-6.39h1.16c1.71,0,2.73-.9,2.73-2.45a2.23,2.23,0,0,0-1.06-2.09,4.25,4.25,0,0,0-1.84-.36h-1Z" transform="translate(-1.01 -7.99)"/></g><g class="cls-1"><path class="cls-2" d="M50.18,56.72V68h-.79V56.72H46.27V56h7v.72Z" transform="translate(-1.01 -7.99)"/></g><g class="cls-1"><path class="cls-2" d="M60,56.72H56v4.36h4v.72H56V68h-.79V56H60Z" transform="translate(-1.01 -7.99)"/></g><g class="cls-1"><path class="cls-2" d="M73.73,62a6.23,6.23,0,1,1-6.23-6.19A6.13,6.13,0,0,1,73.73,62Zm-.83,0a5.4,5.4,0,1,0-5.4,5.46A5.33,5.33,0,0,0,72.9,62Z" transform="translate(-1.01 -7.99)"/><path class="cls-2" d="M77.11,56V67.29h3.35V68H76.32V56Z" transform="translate(-1.01 -7.99)"/><path class="cls-2" d="M83.12,56V68h-.79V56Z" transform="translate(-1.01 -7.99)"/><path class="cls-2" d="M98.18,62A6.23,6.23,0,1,1,92,55.84,6.13,6.13,0,0,1,98.18,62Zm-.83,0A5.41,5.41,0,1,0,92,67.49,5.33,5.33,0,0,0,97.35,62Z" transform="translate(-1.01 -7.99)"/></g></g></svg>